<svg width="125" height="115" viewBox="0 0 125 115" fill="none" xmlns="http://www.w3.org/2000/svg">
<g filter="url(#filter0_d_2108_38)">
<path d="M18.1846 48.4966L18.1846 44.4966L15.1231 44.4966L14.3234 47.4518L18.1846 48.4966ZM4.00022 100.914L0.139089 99.8689C-0.186197 101.071 0.0669234 102.356 0.82379 103.345C1.58066 104.334 2.75492 104.914 4.00022 104.914L4.00022 100.914ZM30.0002 100.914L30.0002 104.914C31.7749 104.914 33.3373 103.744 33.8378 102.042L30.0002 100.914ZM38.5002 72.0002L38.5002 68.0002C36.7256 68.0002 35.1632 69.1695 34.6626 70.872L38.5002 72.0002ZM67.5002 72.0002L67.5002 76.0002C69.1042 76.0002 70.553 75.0421 71.1809 73.5663L67.5002 72.0002ZM77.5005 48.4964L81.1812 50.0624C81.7069 48.8269 81.5776 47.41 80.837 46.2901C80.0963 45.1701 78.8432 44.4964 77.5005 44.4964L77.5005 48.4964ZM18.1846 48.4966L14.3234 47.4518L0.139089 99.8689L4.00022 100.914L7.86134 101.959L22.0457 49.5415L18.1846 48.4966ZM4.00022 100.914L4.00022 104.914L30.0002 104.914L30.0002 100.914L30.0002 96.9137L4.00022 96.9137L4.00022 100.914ZM30.0002 100.914L33.8378 102.042L42.3379 73.1284L38.5002 72.0002L34.6626 70.872L26.1626 99.7855L30.0002 100.914ZM38.5002 72.0002L38.5002 76.0002L67.5002 76.0002L67.5002 72.0002L67.5002 68.0002L38.5002 68.0002L38.5002 72.0002ZM67.5002 72.0002L71.1809 73.5663L81.1812 50.0624L77.5005 48.4964L73.8198 46.9304L63.8196 70.4342L67.5002 72.0002ZM77.5005 48.4964L77.5005 44.4964L18.1846 44.4966L18.1846 48.4966L18.1846 52.4966L77.5005 52.4964L77.5005 48.4964Z" fill="white"/>
<g filter="url(#filter1_d_2108_38)">
<path d="M102.538 4.3464C106.429 4.3464 109.291 7.99271 108.366 11.7722L103.986 29.6759C103.327 32.3687 100.909 34.2598 98.1372 34.2501L21.6689 33.9817L28.2054 8.83656C28.8928 6.19216 31.2799 4.34618 34.0122 4.34617L102.538 4.3464Z" stroke="white" stroke-width="8" shape-rendering="crispEdges"/>
</g>
</g>
<defs>
<filter id="filter0_d_2108_38" x="0" y="0.346191" width="124.543" height="114.568" filterUnits="userSpaceOnUse" color-interpolation-filters="sRGB">
<feFlood flood-opacity="0" result="BackgroundImageFix"/>
<feColorMatrix in="SourceAlpha" type="matrix" values="0 0 0 0 0 0 0 0 0 0 0 0 0 0 0 0 0 0 127 0" result="hardAlpha"/>
<feOffset dx="8" dy="6"/>
<feGaussianBlur stdDeviation="2"/>
<feComposite in2="hardAlpha" operator="out"/>
<feColorMatrix type="matrix" values="0 0 0 0 0 0 0 0 0 0 0 0 0 0 0 0 0 0 0.15 0"/>
<feBlend mode="normal" in2="BackgroundImageFix" result="effect1_dropShadow_2108_38"/>
<feBlend mode="normal" in="SourceGraphic" in2="effect1_dropShadow_2108_38" result="shape"/>
</filter>
<filter id="filter1_d_2108_38" x="12.5005" y="0.346191" width="104.042" height="45.9038" filterUnits="userSpaceOnUse" color-interpolation-filters="sRGB">
<feFlood flood-opacity="0" result="BackgroundImageFix"/>
<feColorMatrix in="SourceAlpha" type="matrix" values="0 0 0 0 0 0 0 0 0 0 0 0 0 0 0 0 0 0 127 0" result="hardAlpha"/>
<feOffset dy="4"/>
<feGaussianBlur stdDeviation="2"/>
<feComposite in2="hardAlpha" operator="out"/>
<feColorMatrix type="matrix" values="0 0 0 0 0 0 0 0 0 0 0 0 0 0 0 0 0 0 0.25 0"/>
<feBlend mode="normal" in2="BackgroundImageFix" result="effect1_dropShadow_2108_38"/>
<feBlend mode="normal" in="SourceGraphic" in2="effect1_dropShadow_2108_38" result="shape"/>
</filter>
</defs>
</svg>
